<?xml version="1.0" encoding="utf-8"?>
<!-- Generator: Adobe Illustrator 24.0.1, SVG Export Plug-In . SVG Version: 6.00 Build 0)  -->
<svg version="1.1" id="Layer_1" xmlns="http://www.w3.org/2000/svg" xmlns:xlink="http://www.w3.org/1999/xlink" x="0px" y="0px"
	 viewBox="0 0 244.47 157.61" style="enable-background:new 0 0 244.47 157.61;" xml:space="preserve">
<style type="text/css">
	.st0{fill:#FFFFFF;}
	.st1{fill:#1B3A6B;}
	.st2{fill:#DC723A;}
	.st3{opacity:0.5;fill:#FFFFFF;}
	.st4{clip-path:url(#SVGID_2_);fill:url(#SVGID_3_);}
	.st5{fill:url(#SVGID_4_);}
	.st6{clip-path:url(#SVGID_6_);}
	.st7{fill:url(#SVGID_7_);}
	.st8{fill:url(#SVGID_8_);}
	.st9{fill:url(#SVGID_9_);}
	.st10{fill:url(#SVGID_10_);}
	.st11{fill:url(#SVGID_11_);}
	.st12{fill:url(#SVGID_12_);}
	.st13{fill:url(#SVGID_13_);}
</style>
<g>
	<path class="st3" d="M168.84,99.33L168.84,99.33v-16.2l3.76-3.3l3.7,3.3v12.09h1.56v4.11h11.2V84.68h2.19v-3.11h2.2l2.66-5.9h17.84
		l2.7,5.9h2.19v3.11H221v14.65l17.11-0.11c-2.57-17.06-16.51-30.16-33.87-31.74c-0.79-24.19-20.63-43.56-45.01-43.56
		c-7.85,0-15.22,2.01-21.64,5.54C127.95,16.7,112.66,8.46,95.44,8.46c-18.93,0-35.53,9.97-44.84,24.94
		C26.43,39.97,8.81,60.3,8.81,84.37c0,5.21,0.83,10.25,2.37,15.01l8.37-0.05v-2.81h7.9v-27.2h4.34V52.57l4.38-5.73l4.13,5.73v16.75
		h4.39v9.46h2.09v20.54h2.14V77.4l12.04-4.93v26.87h2.31V69.58h2.18V58.13h2.19V42.76h2.19v-8.51h24.96v8.51h2.19v15.36h2.19v11.46
		h2.19v29.75h6.68v-9.35h2.69l6.01-4.47h2.95l5.01,4.47h2.95v9.35h0.87V57.61h4.98v-2.66l9.14-6.02l8.8,6.02v2.66H168v41.72H168.84"
		/>
	<g>
		<g>
			<path class="st0" d="M6.36,127.83c0-2.46,0.43-4.91,1.3-7.35c0.86-2.44,2.13-4.63,3.8-6.57c1.67-1.94,3.72-3.5,6.14-4.7
				c2.42-1.19,5.17-1.79,8.24-1.79c3.65,0,6.78,0.83,9.39,2.48c2.61,1.65,4.55,3.8,5.82,6.45l-4.09,2.65
				c-0.62-1.31-1.35-2.4-2.22-3.28c-0.86-0.88-1.81-1.59-2.82-2.13c-1.02-0.54-2.07-0.92-3.14-1.15c-1.08-0.23-2.13-0.35-3.17-0.35
				c-2.27,0-4.27,0.47-6.02,1.41c-1.75,0.94-3.22,2.17-4.41,3.69c-1.19,1.52-2.08,3.23-2.68,5.13s-0.89,3.81-0.89,5.73
				c0,2.15,0.35,4.2,1.07,6.14s1.7,3.66,2.97,5.16s2.76,2.69,4.49,3.57s3.61,1.32,5.65,1.32c1.07,0,2.18-0.13,3.31-0.4
				c1.13-0.27,2.22-0.7,3.25-1.3c1.04-0.59,2.01-1.34,2.91-2.25c0.9-0.9,1.64-1.99,2.22-3.25l4.32,2.36
				c-0.65,1.54-1.57,2.89-2.74,4.06c-1.17,1.17-2.5,2.16-3.98,2.97s-3.04,1.42-4.7,1.84s-3.26,0.63-4.84,0.63
				c-2.8,0-5.38-0.61-7.72-1.84c-2.34-1.23-4.37-2.83-6.08-4.81c-1.71-1.98-3.04-4.22-3.98-6.74
				C6.83,133.01,6.36,130.44,6.36,127.83z"/>
			<path class="st0" d="M47.61,106.51h5.07v34.28c0,1.11,0.3,1.99,0.89,2.62s1.43,0.95,2.51,0.95c0.42,0,0.92-0.07,1.5-0.2
				c0.58-0.13,1.11-0.3,1.61-0.49l0.81,4.09c-0.84,0.35-1.84,0.63-3,0.86c-1.15,0.23-2.17,0.35-3.05,0.35
				c-1.96,0-3.51-0.56-4.64-1.67c-1.13-1.11-1.7-2.67-1.7-4.67V106.51z"/>
			<path class="st0" d="M77.11,149.15c-2.27,0-4.33-0.42-6.19-1.27c-1.86-0.84-3.46-1.98-4.78-3.4c-1.33-1.42-2.35-3.07-3.08-4.95
				s-1.09-3.86-1.09-5.93c0-2.11,0.37-4.11,1.12-5.99s1.79-3.53,3.11-4.96c1.33-1.42,2.92-2.55,4.78-3.4
				c1.86-0.84,3.91-1.27,6.14-1.27s4.28,0.42,6.17,1.27c1.88,0.84,3.49,1.98,4.81,3.4c1.33,1.42,2.36,3.07,3.11,4.96
				s1.12,3.88,1.12,5.99c0,2.07-0.37,4.05-1.09,5.93c-0.73,1.88-1.77,3.53-3.11,4.95c-1.34,1.42-2.95,2.55-4.81,3.4
				C81.44,148.72,79.38,149.15,77.11,149.15z M67.14,133.65c0,1.58,0.26,3.04,0.78,4.38c0.52,1.34,1.23,2.52,2.13,3.51
				s1.96,1.79,3.17,2.36s2.51,0.86,3.89,0.86s2.68-0.29,3.89-0.86s2.28-1.37,3.2-2.39c0.92-1.02,1.64-2.21,2.16-3.57
				c0.52-1.36,0.78-2.83,0.78-4.41c0-1.54-0.26-2.99-0.78-4.35c-0.52-1.36-1.24-2.55-2.16-3.57c-0.92-1.02-1.99-1.82-3.2-2.39
				s-2.51-0.86-3.89-0.86s-2.68,0.3-3.89,0.89s-2.27,1.4-3.17,2.42s-1.61,2.21-2.13,3.57C67.4,130.61,67.14,132.07,67.14,133.65z"/>
			<path class="st0" d="M107.76,149.15c-3.15,0-5.53-1.06-7.14-3.17c-1.61-2.11-2.42-5.26-2.42-9.45V118.5h5.07v17.05
				c0,6.15,2.13,9.22,6.39,9.22c2.07,0,4.02-0.66,5.85-1.99s3.18-3.14,4.06-5.44V118.5h5.07v23.85c0,1.19,0.54,1.81,1.61,1.84v4.38
				c-0.58,0.08-1.03,0.12-1.35,0.14s-0.64,0.03-0.95,0.03c-1,0-1.83-0.3-2.51-0.89c-0.67-0.6-1.03-1.33-1.07-2.22l-0.12-3.51
				c-1.34,2.27-3.11,4-5.3,5.21S110.37,149.15,107.76,149.15z"/>
			<path class="st0" d="M145.5,149.15c-2.07,0-4-0.42-5.76-1.27s-3.28-1.98-4.55-3.4c-1.27-1.42-2.26-3.07-2.97-4.95
				s-1.07-3.86-1.07-5.93c0-2.11,0.34-4.12,1.01-6.02c0.67-1.9,1.61-3.56,2.82-4.98c1.21-1.42,2.65-2.54,4.32-3.37
				c1.67-0.83,3.5-1.24,5.5-1.24c2.42,0,4.58,0.63,6.48,1.9c1.9,1.27,3.41,2.8,4.52,4.61v-17.97h5.07v35.83
				c0,1.19,0.54,1.81,1.61,1.84v4.38c-0.54,0.08-0.97,0.13-1.3,0.17c-0.33,0.04-0.64,0.06-0.95,0.06c-1,0-1.87-0.34-2.62-1.01
				s-1.12-1.45-1.12-2.33v-2.53c-1.19,1.96-2.78,3.49-4.75,4.58C149.77,148.6,147.69,149.15,145.5,149.15z M146.71,144.77
				c0.92,0,1.87-0.17,2.85-0.52s1.9-0.83,2.77-1.44s1.61-1.33,2.25-2.16c0.63-0.83,1.05-1.7,1.24-2.62v-8.64
				c-0.35-0.96-0.86-1.87-1.56-2.74c-0.69-0.86-1.47-1.61-2.33-2.25s-1.79-1.13-2.77-1.5c-0.98-0.36-1.95-0.55-2.91-0.55
				c-1.5,0-2.85,0.32-4.06,0.95c-1.21,0.63-2.25,1.48-3.11,2.54s-1.53,2.27-1.99,3.63c-0.46,1.36-0.69,2.76-0.69,4.18
				c0,1.5,0.27,2.93,0.81,4.29c0.54,1.36,1.27,2.54,2.19,3.54s2.01,1.8,3.26,2.39C143.89,144.47,145.25,144.77,146.71,144.77z"/>
			<path class="st2" d="M167.79,121.49c0-1.96,0.37-3.8,1.12-5.53s1.79-3.23,3.11-4.49s2.87-2.27,4.64-3s3.69-1.09,5.76-1.09
				c2.19,0,4.2,0.4,6.02,1.21c1.82,0.81,3.39,1.96,4.7,3.46c1.3,1.5,2.31,3.33,3.02,5.5c0.71,2.17,1.07,4.64,1.07,7.4
				c0,4.03-0.37,7.57-1.09,10.6c-0.73,3.04-1.77,5.56-3.11,7.58c-1.34,2.02-2.96,3.52-4.84,4.52s-3.97,1.5-6.28,1.5
				c-2.65,0-5.06-0.64-7.23-1.93c-2.17-1.29-3.87-3.08-5.1-5.39l3.11-3.05c0.84,1.81,2.09,3.24,3.74,4.29
				c1.65,1.06,3.5,1.58,5.53,1.58c3.15,0,5.67-1.39,7.58-4.18c1.9-2.78,2.87-6.71,2.91-11.78c-0.85,2-2.21,3.59-4.09,4.78
				c-1.88,1.19-4.03,1.79-6.45,1.79c-1.96,0-3.8-0.35-5.53-1.07c-1.73-0.71-3.23-1.69-4.49-2.94c-1.27-1.25-2.27-2.71-3-4.38
				C168.16,125.21,167.79,123.41,167.79,121.49z M182.37,111.7c-1.34,0-2.6,0.26-3.77,0.78c-1.17,0.52-2.19,1.22-3.05,2.1
				c-0.86,0.88-1.56,1.92-2.07,3.11s-0.78,2.44-0.78,3.74c0,1.35,0.26,2.6,0.78,3.77s1.22,2.19,2.1,3.05s1.91,1.56,3.08,2.07
				c1.17,0.52,2.43,0.78,3.77,0.78c1.3,0,2.55-0.26,3.74-0.78s2.23-1.21,3.11-2.07c0.88-0.86,1.58-1.88,2.1-3.05
				s0.78-2.41,0.78-3.72c0-1.3-0.26-2.55-0.78-3.74s-1.23-2.24-2.13-3.14c-0.9-0.9-1.95-1.61-3.14-2.13
				C184.92,111.96,183.67,111.7,182.37,111.7z"/>
			<path class="st0" d="M216.33,133.98v3.08h-13.61v-3.08h5.25v-21.02c-0.21,0.31-0.55,0.65-1.02,1.02s-1,0.73-1.58,1.08
				c-0.58,0.35-1.18,0.64-1.81,0.87c-0.63,0.23-1.2,0.35-1.72,0.35v-3.16c0.69,0,1.39-0.19,2.1-0.56c0.71-0.37,1.36-0.79,1.95-1.25
				s1.08-0.89,1.47-1.27c0.39-0.39,0.59-0.6,0.62-0.66h3.47v24.61H216.33z"/>
			<path class="st0" d="M228.02,137.41c-1.18,0-2.28-0.14-3.3-0.42s-1.92-0.69-2.72-1.21c-0.8-0.53-1.46-1.16-1.99-1.91
				c-0.53-0.75-0.88-1.58-1.06-2.51l1.93-2.04c0.05,0.57,0.26,1.14,0.62,1.74c0.36,0.59,0.84,1.12,1.45,1.6
				c0.6,0.48,1.33,0.86,2.18,1.16s1.8,0.44,2.85,0.44c0.87,0,1.7-0.12,2.47-0.35s1.45-0.55,2.02-0.96c0.58-0.41,1.03-0.91,1.35-1.5
				c0.32-0.59,0.48-1.25,0.48-1.97c0-1.59-0.76-2.82-2.28-3.68c-1.52-0.86-3.6-1.29-6.25-1.29h-1.31v-2.89h1.31
				c2.39,0,4.29-0.37,5.69-1.12c1.4-0.75,2.1-1.89,2.1-3.43c0-0.72-0.15-1.38-0.46-1.97c-0.31-0.59-0.73-1.09-1.25-1.48
				s-1.13-0.71-1.81-0.93c-0.68-0.22-1.38-0.33-2.1-0.33c-0.82,0-1.59,0.1-2.29,0.29c-0.71,0.19-1.34,0.46-1.91,0.79
				s-1.05,0.73-1.45,1.18c-0.4,0.45-0.71,0.92-0.95,1.41l-2.28-2.35c0.39-0.67,0.89-1.27,1.52-1.81s1.33-1,2.1-1.37
				s1.6-0.66,2.49-0.85c0.89-0.19,1.79-0.29,2.72-0.29c1.34,0,2.57,0.19,3.7,0.58c1.13,0.39,2.11,0.92,2.93,1.6
				c0.82,0.68,1.47,1.48,1.93,2.39c0.46,0.91,0.69,1.91,0.69,2.99c0,1.57-0.46,2.86-1.39,3.88c-0.93,1.02-2.24,1.73-3.93,2.14
				c0.9,0.15,1.72,0.45,2.45,0.89c0.73,0.44,1.36,0.96,1.89,1.58c0.53,0.62,0.93,1.31,1.21,2.08s0.42,1.58,0.42,2.43
				c0,1.21-0.27,2.28-0.81,3.2c-0.54,0.93-1.26,1.71-2.16,2.35c-0.9,0.64-1.94,1.13-3.12,1.47S229.3,137.41,228.02,137.41z"/>
		</g>

			<rect x="218.02" y="129.04" transform="matrix(-1.836970e-16 1 -1 -1.836970e-16 366.5905 -74.0007)" class="st0" width="4.55" height="34.5"/>
	</g>
</g>
<g>
	<g>
		<defs>
			<path id="SVGID_5_" d="M495.95,65.33c-0.89-27.46-23.42-49.44-51.09-49.44c-8.9,0-17.28,2.28-24.57,6.28
				C409.36,7.69,392.01-1.66,372.47-1.66c-21.49,0-40.33,11.32-50.9,28.31c-27.44,7.45-47.44,30.53-47.44,57.85
				c0,33.35,29.79,60.38,66.54,60.38c10.11,0,19.7-2.05,28.28-5.71c13.36,12.24,34.1,20.11,57.4,20.11c18.01,0,34.5-4.71,47.23-12.5
				c5.59,2.67,11.85,4.17,18.45,4.17c23.69,0,42.9-19.21,42.9-42.9C534.92,85.67,517.8,67.31,495.95,65.33z"/>
		</defs>
		<clipPath id="SVGID_2_">
			<use xlink:href="#SVGID_5_"  style="overflow:visible;"/>
		</clipPath>
		<g style="clip-path:url(#SVGID_2_);">
			<linearGradient id="SVGID_3_" gradientUnits="userSpaceOnUse" x1="263.6985" y1="164.4477" x2="263.6985" y2="101.5383">
				<stop  offset="0" style="stop-color:#3F5772"/>
				<stop  offset="1" style="stop-color:#1B3A6B"/>
			</linearGradient>
			<rect x="242.55" y="101.54" style="fill:url(#SVGID_3_);" width="42.3" height="62.91"/>
		</g>
	</g>
</g>
</svg>
